<mxfile host="app.diagrams.net" modified="2024-01-24T02:31:58.721Z" agent="Mozilla/5.0 (Windows NT 10.0; Win64; x64) AppleWebKit/537.36 (KHTML, like Gecko) Chrome/120.0.0.0 Safari/537.36" etag="Uv6CNJVmC4Ic_z7nne6H" version="22.1.21" type="github">
  <diagram name="第 1 页" id="gyderTHux_RlRt0Dx9sq">
    <mxGraphModel dx="1562" dy="818" grid="1" gridSize="10" guides="1" tooltips="1" connect="1" arrows="1" fold="1" page="1" pageScale="1" pageWidth="827" pageHeight="1169" math="0" shadow="0">
      <root>
        <mxCell id="0" />
        <mxCell id="1" parent="0" />
        <mxCell id="IYwACVZ7fOERTfE9KCUY-1" value="" style="rounded=0;whiteSpace=wrap;html=1;dashed=1;dashPattern=8 8;" parent="1" vertex="1">
          <mxGeometry x="120" y="20" width="520" height="150" as="geometry" />
        </mxCell>
        <mxCell id="IYwACVZ7fOERTfE9KCUY-3" value="研究背景及意义" style="rounded=0;whiteSpace=wrap;html=1;" parent="1" vertex="1">
          <mxGeometry x="310" y="30" width="120" height="20" as="geometry" />
        </mxCell>
        <mxCell id="IYwACVZ7fOERTfE9KCUY-5" value="国内外文献综述" style="rounded=0;whiteSpace=wrap;html=1;" parent="1" vertex="1">
          <mxGeometry x="310" y="64" width="120" height="20" as="geometry" />
        </mxCell>
        <mxCell id="IYwACVZ7fOERTfE9KCUY-6" value="研究方法和内容" style="rounded=0;whiteSpace=wrap;html=1;" parent="1" vertex="1">
          <mxGeometry x="310" y="142" width="120" height="20" as="geometry" />
        </mxCell>
        <mxCell id="IYwACVZ7fOERTfE9KCUY-7" value="事故风险分析" style="rounded=0;whiteSpace=wrap;html=1;" parent="1" vertex="1">
          <mxGeometry x="310" y="102" width="120" height="20" as="geometry" />
        </mxCell>
        <mxCell id="IYwACVZ7fOERTfE9KCUY-8" value="事故致因模型" style="rounded=0;whiteSpace=wrap;html=1;" parent="1" vertex="1">
          <mxGeometry x="160" y="102" width="120" height="20" as="geometry" />
        </mxCell>
        <mxCell id="IYwACVZ7fOERTfE9KCUY-9" value="石化安全管理" style="rounded=0;whiteSpace=wrap;html=1;" parent="1" vertex="1">
          <mxGeometry x="470" y="102" width="120" height="20" as="geometry" />
        </mxCell>
        <mxCell id="IYwACVZ7fOERTfE9KCUY-10" value="" style="endArrow=classic;html=1;rounded=0;exitX=0.5;exitY=1;exitDx=0;exitDy=0;entryX=0.5;entryY=0;entryDx=0;entryDy=0;" parent="1" source="IYwACVZ7fOERTfE9KCUY-3" target="IYwACVZ7fOERTfE9KCUY-5" edge="1">
          <mxGeometry width="50" height="50" relative="1" as="geometry">
            <mxPoint x="410" y="220" as="sourcePoint" />
            <mxPoint x="460" y="170" as="targetPoint" />
          </mxGeometry>
        </mxCell>
        <mxCell id="IYwACVZ7fOERTfE9KCUY-11" value="" style="endArrow=classic;html=1;rounded=0;exitX=0.5;exitY=1;exitDx=0;exitDy=0;entryX=0.5;entryY=0;entryDx=0;entryDy=0;" parent="1" target="IYwACVZ7fOERTfE9KCUY-7" edge="1">
          <mxGeometry width="50" height="50" relative="1" as="geometry">
            <mxPoint x="370" y="84" as="sourcePoint" />
            <mxPoint x="370" y="98" as="targetPoint" />
            <Array as="points" />
          </mxGeometry>
        </mxCell>
        <mxCell id="IYwACVZ7fOERTfE9KCUY-12" value="" style="endArrow=classic;html=1;rounded=0;exitX=0.5;exitY=1;exitDx=0;exitDy=0;entryX=0.5;entryY=0;entryDx=0;entryDy=0;" parent="1" source="IYwACVZ7fOERTfE9KCUY-7" target="IYwACVZ7fOERTfE9KCUY-6" edge="1">
          <mxGeometry width="50" height="50" relative="1" as="geometry">
            <mxPoint x="370" y="122" as="sourcePoint" />
            <mxPoint x="370.24" y="135.96" as="targetPoint" />
          </mxGeometry>
        </mxCell>
        <mxCell id="IYwACVZ7fOERTfE9KCUY-15" value="" style="endArrow=classic;startArrow=classic;html=1;rounded=0;exitX=0.5;exitY=0;exitDx=0;exitDy=0;entryX=0.5;entryY=0;entryDx=0;entryDy=0;" parent="1" source="IYwACVZ7fOERTfE9KCUY-8" target="IYwACVZ7fOERTfE9KCUY-9" edge="1">
          <mxGeometry width="50" height="50" relative="1" as="geometry">
            <mxPoint x="330" y="100" as="sourcePoint" />
            <mxPoint x="380" y="50" as="targetPoint" />
            <Array as="points">
              <mxPoint x="220" y="90" />
              <mxPoint x="530" y="90" />
            </Array>
          </mxGeometry>
        </mxCell>
        <mxCell id="IYwACVZ7fOERTfE9KCUY-17" value="" style="endArrow=none;html=1;rounded=0;exitX=0.5;exitY=1;exitDx=0;exitDy=0;entryX=0.5;entryY=1;entryDx=0;entryDy=0;" parent="1" source="IYwACVZ7fOERTfE9KCUY-8" target="IYwACVZ7fOERTfE9KCUY-9" edge="1">
          <mxGeometry width="50" height="50" relative="1" as="geometry">
            <mxPoint x="280" y="130" as="sourcePoint" />
            <mxPoint x="330" y="80" as="targetPoint" />
            <Array as="points">
              <mxPoint x="220" y="130" />
              <mxPoint x="530" y="130" />
            </Array>
          </mxGeometry>
        </mxCell>
        <mxCell id="IYwACVZ7fOERTfE9KCUY-18" value="第一章" style="text;html=1;strokeColor=none;fillColor=none;align=center;verticalAlign=middle;whiteSpace=wrap;rounded=0;" parent="1" vertex="1">
          <mxGeometry x="120" y="142" width="60" height="30" as="geometry" />
        </mxCell>
        <mxCell id="IYwACVZ7fOERTfE9KCUY-19" value="" style="rounded=0;whiteSpace=wrap;html=1;dashed=1;dashPattern=8 8;" parent="1" vertex="1">
          <mxGeometry x="120" y="189" width="520" height="150" as="geometry" />
        </mxCell>
        <mxCell id="IYwACVZ7fOERTfE9KCUY-20" value="石化事故调查报告260份" style="rounded=0;whiteSpace=wrap;html=1;" parent="1" vertex="1">
          <mxGeometry x="290" y="199" width="160" height="20" as="geometry" />
        </mxCell>
        <mxCell id="IYwACVZ7fOERTfE9KCUY-21" value="&lt;p class=&quot;subsection&quot; style=&quot;margin-left:0cm;text-indent:0cm;mso-list:l0 level3 lfo1&quot;&gt;&lt;span style=&quot;font-family:黑体;mso-ascii-font-family:Arial;mso-hansi-font-family:Arial&quot;&gt;石化安全系统要素及特征分析&lt;/span&gt;&lt;span lang=&quot;EN-US&quot;&gt;&lt;/span&gt;&lt;/p&gt;" style="rounded=0;whiteSpace=wrap;html=1;" parent="1" vertex="1">
          <mxGeometry x="290" y="235" width="160" height="20" as="geometry" />
        </mxCell>
        <mxCell id="IYwACVZ7fOERTfE9KCUY-22" value="石化事故致因层次体系（6层次，57个致因）" style="rounded=0;whiteSpace=wrap;html=1;" parent="1" vertex="1">
          <mxGeometry x="240" y="311" width="260" height="20" as="geometry" />
        </mxCell>
        <mxCell id="IYwACVZ7fOERTfE9KCUY-23" value="规范与条例" style="rounded=0;whiteSpace=wrap;html=1;" parent="1" vertex="1">
          <mxGeometry x="310" y="271" width="120" height="20" as="geometry" />
        </mxCell>
        <mxCell id="IYwACVZ7fOERTfE9KCUY-24" value="石化事故基本信息分析框架" style="rounded=0;whiteSpace=wrap;html=1;" parent="1" vertex="1">
          <mxGeometry x="129" y="271" width="160" height="20" as="geometry" />
        </mxCell>
        <mxCell id="IYwACVZ7fOERTfE9KCUY-25" value="石化事故风险管理框架" style="rounded=0;whiteSpace=wrap;html=1;" parent="1" vertex="1">
          <mxGeometry x="460" y="271" width="140" height="20" as="geometry" />
        </mxCell>
        <mxCell id="IYwACVZ7fOERTfE9KCUY-26" value="" style="endArrow=classic;html=1;rounded=0;exitX=0.5;exitY=1;exitDx=0;exitDy=0;entryX=0.5;entryY=0;entryDx=0;entryDy=0;" parent="1" source="IYwACVZ7fOERTfE9KCUY-20" target="IYwACVZ7fOERTfE9KCUY-21" edge="1">
          <mxGeometry width="50" height="50" relative="1" as="geometry">
            <mxPoint x="410" y="389" as="sourcePoint" />
            <mxPoint x="460" y="339" as="targetPoint" />
          </mxGeometry>
        </mxCell>
        <mxCell id="IYwACVZ7fOERTfE9KCUY-27" value="" style="endArrow=classic;html=1;rounded=0;exitX=0.5;exitY=1;exitDx=0;exitDy=0;entryX=0.5;entryY=0;entryDx=0;entryDy=0;" parent="1" source="IYwACVZ7fOERTfE9KCUY-21" target="IYwACVZ7fOERTfE9KCUY-23" edge="1">
          <mxGeometry width="50" height="50" relative="1" as="geometry">
            <mxPoint x="370" y="253" as="sourcePoint" />
            <mxPoint x="370" y="267" as="targetPoint" />
            <Array as="points" />
          </mxGeometry>
        </mxCell>
        <mxCell id="IYwACVZ7fOERTfE9KCUY-28" value="" style="endArrow=classic;html=1;rounded=0;exitX=0.5;exitY=1;exitDx=0;exitDy=0;entryX=0.5;entryY=0;entryDx=0;entryDy=0;" parent="1" source="IYwACVZ7fOERTfE9KCUY-23" target="IYwACVZ7fOERTfE9KCUY-22" edge="1">
          <mxGeometry width="50" height="50" relative="1" as="geometry">
            <mxPoint x="370" y="291" as="sourcePoint" />
            <mxPoint x="370.24" y="304.96000000000004" as="targetPoint" />
          </mxGeometry>
        </mxCell>
        <mxCell id="IYwACVZ7fOERTfE9KCUY-30" value="" style="endArrow=none;html=1;rounded=0;exitX=0.5;exitY=1;exitDx=0;exitDy=0;entryX=0.5;entryY=1;entryDx=0;entryDy=0;" parent="1" source="IYwACVZ7fOERTfE9KCUY-24" target="IYwACVZ7fOERTfE9KCUY-25" edge="1">
          <mxGeometry width="50" height="50" relative="1" as="geometry">
            <mxPoint x="280" y="299" as="sourcePoint" />
            <mxPoint x="330" y="249" as="targetPoint" />
            <Array as="points">
              <mxPoint x="209" y="299" />
              <mxPoint x="530" y="299" />
            </Array>
          </mxGeometry>
        </mxCell>
        <mxCell id="IYwACVZ7fOERTfE9KCUY-31" value="第二章" style="text;html=1;strokeColor=none;fillColor=none;align=center;verticalAlign=middle;whiteSpace=wrap;rounded=0;" parent="1" vertex="1">
          <mxGeometry x="120" y="311" width="60" height="30" as="geometry" />
        </mxCell>
        <mxCell id="IYwACVZ7fOERTfE9KCUY-32" value="" style="rounded=0;whiteSpace=wrap;html=1;dashed=1;dashPattern=8 8;" parent="1" vertex="1">
          <mxGeometry x="120" y="360" width="520" height="190" as="geometry" />
        </mxCell>
        <mxCell id="IYwACVZ7fOERTfE9KCUY-33" value="Accimap模型概念" style="rounded=0;whiteSpace=wrap;html=1;" parent="1" vertex="1">
          <mxGeometry x="190" y="365" width="160" height="20" as="geometry" />
        </mxCell>
        <mxCell id="IYwACVZ7fOERTfE9KCUY-34" value="&lt;font face=&quot;黑体&quot;&gt;事故致因统计数据集&lt;/font&gt;" style="rounded=0;whiteSpace=wrap;html=1;" parent="1" vertex="1">
          <mxGeometry x="290" y="410" width="160" height="20" as="geometry" />
        </mxCell>
        <mxCell id="IYwACVZ7fOERTfE9KCUY-35" value="石化事故Accimap模型" style="rounded=0;whiteSpace=wrap;html=1;" parent="1" vertex="1">
          <mxGeometry x="290" y="527" width="160" height="20" as="geometry" />
        </mxCell>
        <mxCell id="IYwACVZ7fOERTfE9KCUY-39" value="" style="endArrow=classic;html=1;rounded=0;exitX=0.5;exitY=1;exitDx=0;exitDy=0;entryX=0.5;entryY=0;entryDx=0;entryDy=0;" parent="1" source="IYwACVZ7fOERTfE9KCUY-33" target="IYwACVZ7fOERTfE9KCUY-34" edge="1">
          <mxGeometry width="50" height="50" relative="1" as="geometry">
            <mxPoint x="410" y="560" as="sourcePoint" />
            <mxPoint x="460" y="510" as="targetPoint" />
            <Array as="points">
              <mxPoint x="270" y="390" />
              <mxPoint x="370" y="390" />
            </Array>
          </mxGeometry>
        </mxCell>
        <mxCell id="IYwACVZ7fOERTfE9KCUY-43" value="第三章" style="text;html=1;strokeColor=none;fillColor=none;align=center;verticalAlign=middle;whiteSpace=wrap;rounded=0;" parent="1" vertex="1">
          <mxGeometry x="120" y="520" width="60" height="30" as="geometry" />
        </mxCell>
        <mxCell id="IYwACVZ7fOERTfE9KCUY-44" value="关联规则研究基础" style="rounded=0;whiteSpace=wrap;html=1;" parent="1" vertex="1">
          <mxGeometry x="390" y="365" width="160" height="20" as="geometry" />
        </mxCell>
        <mxCell id="IYwACVZ7fOERTfE9KCUY-45" value="" style="endArrow=classic;html=1;rounded=0;exitX=0.5;exitY=1;exitDx=0;exitDy=0;entryX=0.5;entryY=0;entryDx=0;entryDy=0;" parent="1" edge="1">
          <mxGeometry width="50" height="50" relative="1" as="geometry">
            <mxPoint x="470" y="385" as="sourcePoint" />
            <mxPoint x="370" y="410" as="targetPoint" />
            <Array as="points">
              <mxPoint x="470" y="390" />
              <mxPoint x="370" y="390" />
            </Array>
          </mxGeometry>
        </mxCell>
        <mxCell id="IYwACVZ7fOERTfE9KCUY-46" value="" style="rounded=0;whiteSpace=wrap;html=1;dashed=1;dashPattern=8 8;" parent="1" vertex="1">
          <mxGeometry x="120" y="835" width="520" height="150" as="geometry" />
        </mxCell>
        <mxCell id="IYwACVZ7fOERTfE9KCUY-48" value="&lt;font face=&quot;黑体&quot;&gt;石化事故预防与控制策略&lt;/font&gt;" style="rounded=0;whiteSpace=wrap;html=1;" parent="1" vertex="1">
          <mxGeometry x="290" y="902" width="160" height="20" as="geometry" />
        </mxCell>
        <mxCell id="IYwACVZ7fOERTfE9KCUY-50" value="预防与控制思路" style="rounded=0;whiteSpace=wrap;html=1;" parent="1" vertex="1">
          <mxGeometry x="190" y="957" width="160" height="20" as="geometry" />
        </mxCell>
        <mxCell id="IYwACVZ7fOERTfE9KCUY-52" value="" style="endArrow=classic;html=1;rounded=0;exitX=0.5;exitY=1;exitDx=0;exitDy=0;entryX=0.5;entryY=0;entryDx=0;entryDy=0;" parent="1" source="IYwACVZ7fOERTfE9KCUY-48" target="IYwACVZ7fOERTfE9KCUY-50" edge="1">
          <mxGeometry width="50" height="50" relative="1" as="geometry">
            <mxPoint x="370" y="950" as="sourcePoint" />
            <mxPoint x="370" y="968" as="targetPoint" />
            <Array as="points">
              <mxPoint x="370" y="936" />
              <mxPoint x="270" y="936" />
            </Array>
          </mxGeometry>
        </mxCell>
        <mxCell id="IYwACVZ7fOERTfE9KCUY-54" value="第五章" style="text;html=1;strokeColor=none;fillColor=none;align=center;verticalAlign=middle;whiteSpace=wrap;rounded=0;" parent="1" vertex="1">
          <mxGeometry x="120" y="957" width="60" height="30" as="geometry" />
        </mxCell>
        <mxCell id="IYwACVZ7fOERTfE9KCUY-57" value="" style="endArrow=classic;html=1;rounded=0;exitX=0.5;exitY=1;exitDx=0;exitDy=0;entryX=0.5;entryY=0;entryDx=0;entryDy=0;" parent="1" target="IYwACVZ7fOERTfE9KCUY-58" edge="1">
          <mxGeometry width="50" height="50" relative="1" as="geometry">
            <mxPoint x="370" y="922" as="sourcePoint" />
            <mxPoint x="469.8399999999999" y="946.05" as="targetPoint" />
            <Array as="points">
              <mxPoint x="370" y="936" />
              <mxPoint x="470" y="936" />
            </Array>
          </mxGeometry>
        </mxCell>
        <mxCell id="IYwACVZ7fOERTfE9KCUY-58" value="预防与控制对策" style="rounded=0;whiteSpace=wrap;html=1;" parent="1" vertex="1">
          <mxGeometry x="390" y="957" width="160" height="20" as="geometry" />
        </mxCell>
        <mxCell id="IYwACVZ7fOERTfE9KCUY-66" value="" style="rounded=0;whiteSpace=wrap;html=1;dashed=1;dashPattern=8 8;" parent="1" vertex="1">
          <mxGeometry x="120" y="570" width="520" height="243" as="geometry" />
        </mxCell>
        <mxCell id="IYwACVZ7fOERTfE9KCUY-67" value="贝叶斯模型基础理论" style="rounded=0;whiteSpace=wrap;html=1;" parent="1" vertex="1">
          <mxGeometry x="124" y="621.5" width="160" height="20" as="geometry" />
        </mxCell>
        <mxCell id="IYwACVZ7fOERTfE9KCUY-68" value="&lt;font face=&quot;黑体&quot;&gt;石化事故贝叶斯网络模型&lt;/font&gt;" style="rounded=0;whiteSpace=wrap;html=1;" parent="1" vertex="1">
          <mxGeometry x="290" y="667.5" width="160" height="20" as="geometry" />
        </mxCell>
        <mxCell id="IYwACVZ7fOERTfE9KCUY-69" value="模型推理分析" style="rounded=0;whiteSpace=wrap;html=1;" parent="1" vertex="1">
          <mxGeometry x="290" y="740.5" width="160" height="20" as="geometry" />
        </mxCell>
        <mxCell id="IYwACVZ7fOERTfE9KCUY-70" value="模型验证" style="rounded=0;whiteSpace=wrap;html=1;" parent="1" vertex="1">
          <mxGeometry x="290" y="704.5" width="160" height="20" as="geometry" />
        </mxCell>
        <mxCell id="IYwACVZ7fOERTfE9KCUY-71" value="" style="endArrow=classic;html=1;rounded=0;exitX=0.5;exitY=1;exitDx=0;exitDy=0;entryX=0.5;entryY=0;entryDx=0;entryDy=0;" parent="1" source="IYwACVZ7fOERTfE9KCUY-67" target="IYwACVZ7fOERTfE9KCUY-68" edge="1">
          <mxGeometry width="50" height="50" relative="1" as="geometry">
            <mxPoint x="410" y="811.5" as="sourcePoint" />
            <mxPoint x="460" y="761.5" as="targetPoint" />
            <Array as="points">
              <mxPoint x="204" y="653" />
              <mxPoint x="370" y="653" />
            </Array>
          </mxGeometry>
        </mxCell>
        <mxCell id="IYwACVZ7fOERTfE9KCUY-72" value="" style="endArrow=classic;html=1;rounded=0;exitX=0.5;exitY=1;exitDx=0;exitDy=0;entryX=0.5;entryY=0;entryDx=0;entryDy=0;" parent="1" source="IYwACVZ7fOERTfE9KCUY-68" target="IYwACVZ7fOERTfE9KCUY-70" edge="1">
          <mxGeometry width="50" height="50" relative="1" as="geometry">
            <mxPoint x="370" y="675.5" as="sourcePoint" />
            <mxPoint x="370" y="693.5" as="targetPoint" />
            <Array as="points" />
          </mxGeometry>
        </mxCell>
        <mxCell id="IYwACVZ7fOERTfE9KCUY-73" value="" style="endArrow=classic;html=1;rounded=0;entryX=0.5;entryY=0;entryDx=0;entryDy=0;exitX=0.5;exitY=1;exitDx=0;exitDy=0;" parent="1" source="IYwACVZ7fOERTfE9KCUY-70" target="IYwACVZ7fOERTfE9KCUY-69" edge="1">
          <mxGeometry width="50" height="50" relative="1" as="geometry">
            <mxPoint x="370" y="723" as="sourcePoint" />
            <mxPoint x="370.24" y="727.46" as="targetPoint" />
          </mxGeometry>
        </mxCell>
        <mxCell id="IYwACVZ7fOERTfE9KCUY-74" value="第四章" style="text;html=1;strokeColor=none;fillColor=none;align=center;verticalAlign=middle;whiteSpace=wrap;rounded=0;" parent="1" vertex="1">
          <mxGeometry x="120" y="733.5" width="60" height="30" as="geometry" />
        </mxCell>
        <mxCell id="IYwACVZ7fOERTfE9KCUY-75" value="基于统计数据集的参数学习" style="rounded=0;whiteSpace=wrap;html=1;" parent="1" vertex="1">
          <mxGeometry x="457" y="621.5" width="160" height="20" as="geometry" />
        </mxCell>
        <mxCell id="IYwACVZ7fOERTfE9KCUY-76" value="" style="endArrow=classic;html=1;rounded=0;exitX=0.5;exitY=1;exitDx=0;exitDy=0;entryX=0.5;entryY=0;entryDx=0;entryDy=0;" parent="1" source="IYwACVZ7fOERTfE9KCUY-75" target="IYwACVZ7fOERTfE9KCUY-68" edge="1">
          <mxGeometry width="50" height="50" relative="1" as="geometry">
            <mxPoint x="610" y="811.5" as="sourcePoint" />
            <mxPoint x="570" y="654.5" as="targetPoint" />
            <Array as="points">
              <mxPoint x="537" y="653" />
              <mxPoint x="370" y="653" />
            </Array>
          </mxGeometry>
        </mxCell>
        <mxCell id="IYwACVZ7fOERTfE9KCUY-77" value="逆向诊断分析" style="rounded=0;whiteSpace=wrap;html=1;" parent="1" vertex="1">
          <mxGeometry x="200" y="788" width="160" height="20" as="geometry" />
        </mxCell>
        <mxCell id="IYwACVZ7fOERTfE9KCUY-78" value="敏感性分析" style="rounded=0;whiteSpace=wrap;html=1;" parent="1" vertex="1">
          <mxGeometry x="390" y="788" width="160" height="20" as="geometry" />
        </mxCell>
        <mxCell id="IYwACVZ7fOERTfE9KCUY-79" value="Accimap模型要素及其逻辑关系转化" style="rounded=0;whiteSpace=wrap;html=1;" parent="1" vertex="1">
          <mxGeometry x="160" y="580" width="200" height="25" as="geometry" />
        </mxCell>
        <mxCell id="IYwACVZ7fOERTfE9KCUY-80" value="" style="endArrow=classic;html=1;rounded=0;exitX=0.5;exitY=1;exitDx=0;exitDy=0;entryX=0.5;entryY=0;entryDx=0;entryDy=0;" parent="1" source="IYwACVZ7fOERTfE9KCUY-79" target="47UYqMWt09Ig30NeYRGR-1" edge="1">
          <mxGeometry width="50" height="50" relative="1" as="geometry">
            <mxPoint x="480" y="733" as="sourcePoint" />
            <mxPoint x="530" y="683" as="targetPoint" />
            <Array as="points">
              <mxPoint x="260" y="610" />
              <mxPoint x="370" y="610" />
            </Array>
          </mxGeometry>
        </mxCell>
        <mxCell id="IYwACVZ7fOERTfE9KCUY-82" value="" style="endArrow=classic;html=1;rounded=0;exitX=0.5;exitY=1;exitDx=0;exitDy=0;entryX=0.5;entryY=0;entryDx=0;entryDy=0;" parent="1" source="IYwACVZ7fOERTfE9KCUY-69" target="IYwACVZ7fOERTfE9KCUY-77" edge="1">
          <mxGeometry width="50" height="50" relative="1" as="geometry">
            <mxPoint x="300" y="833" as="sourcePoint" />
            <mxPoint x="350" y="783" as="targetPoint" />
            <Array as="points">
              <mxPoint x="370" y="773" />
              <mxPoint x="280" y="773" />
            </Array>
          </mxGeometry>
        </mxCell>
        <mxCell id="IYwACVZ7fOERTfE9KCUY-83" value="" style="endArrow=classic;html=1;rounded=0;exitX=0.5;exitY=1;exitDx=0;exitDy=0;entryX=0.5;entryY=0;entryDx=0;entryDy=0;" parent="1" source="IYwACVZ7fOERTfE9KCUY-69" target="IYwACVZ7fOERTfE9KCUY-78" edge="1">
          <mxGeometry width="50" height="50" relative="1" as="geometry">
            <mxPoint x="380" y="763.5" as="sourcePoint" />
            <mxPoint x="522.4028268551235" y="805.5" as="targetPoint" />
            <Array as="points">
              <mxPoint x="370" y="773" />
              <mxPoint x="470" y="773" />
            </Array>
          </mxGeometry>
        </mxCell>
        <mxCell id="IYwACVZ7fOERTfE9KCUY-87" value="" style="endArrow=classic;html=1;rounded=0;fontSize=11;strokeWidth=3;" parent="1" edge="1">
          <mxGeometry width="50" height="50" relative="1" as="geometry">
            <mxPoint x="369.86" y="815" as="sourcePoint" />
            <mxPoint x="369.86" y="835" as="targetPoint" />
          </mxGeometry>
        </mxCell>
        <mxCell id="IYwACVZ7fOERTfE9KCUY-93" value="" style="endArrow=classic;html=1;rounded=0;fontSize=11;strokeWidth=3;" parent="1" edge="1">
          <mxGeometry width="50" height="50" relative="1" as="geometry">
            <mxPoint x="369.8" y="551" as="sourcePoint" />
            <mxPoint x="369.8" y="571" as="targetPoint" />
          </mxGeometry>
        </mxCell>
        <mxCell id="IYwACVZ7fOERTfE9KCUY-94" value="" style="endArrow=classic;html=1;rounded=0;fontSize=11;strokeWidth=3;" parent="1" edge="1">
          <mxGeometry width="50" height="50" relative="1" as="geometry">
            <mxPoint x="369.8" y="340" as="sourcePoint" />
            <mxPoint x="369.8" y="360" as="targetPoint" />
          </mxGeometry>
        </mxCell>
        <mxCell id="IYwACVZ7fOERTfE9KCUY-95" value="" style="endArrow=classic;html=1;rounded=0;fontSize=11;strokeWidth=3;" parent="1" edge="1">
          <mxGeometry width="50" height="50" relative="1" as="geometry">
            <mxPoint x="369.8" y="170" as="sourcePoint" />
            <mxPoint x="369.8" y="190" as="targetPoint" />
          </mxGeometry>
        </mxCell>
        <mxCell id="IYwACVZ7fOERTfE9KCUY-96" value="石化事故最大概率致因链" style="rounded=0;whiteSpace=wrap;html=1;" parent="1" vertex="1">
          <mxGeometry x="200" y="855.5" width="160" height="20" as="geometry" />
        </mxCell>
        <mxCell id="IYwACVZ7fOERTfE9KCUY-97" value="" style="endArrow=classic;html=1;rounded=0;exitX=0.5;exitY=1;exitDx=0;exitDy=0;entryX=0.5;entryY=0;entryDx=0;entryDy=0;" parent="1" source="IYwACVZ7fOERTfE9KCUY-96" edge="1">
          <mxGeometry width="50" height="50" relative="1" as="geometry">
            <mxPoint x="410" y="1045.5" as="sourcePoint" />
            <mxPoint x="370" y="902" as="targetPoint" />
            <Array as="points">
              <mxPoint x="280" y="887" />
              <mxPoint x="370" y="887" />
            </Array>
          </mxGeometry>
        </mxCell>
        <mxCell id="IYwACVZ7fOERTfE9KCUY-98" value="最大概率致因链外的敏感性因素" style="rounded=0;whiteSpace=wrap;html=1;" parent="1" vertex="1">
          <mxGeometry x="390" y="855.5" width="177" height="20" as="geometry" />
        </mxCell>
        <mxCell id="IYwACVZ7fOERTfE9KCUY-99" value="" style="endArrow=classic;html=1;rounded=0;exitX=0.5;exitY=1;exitDx=0;exitDy=0;entryX=0.5;entryY=0;entryDx=0;entryDy=0;" parent="1" source="IYwACVZ7fOERTfE9KCUY-98" edge="1">
          <mxGeometry width="50" height="50" relative="1" as="geometry">
            <mxPoint x="610" y="1045.5" as="sourcePoint" />
            <mxPoint x="370" y="902" as="targetPoint" />
            <Array as="points">
              <mxPoint x="479" y="887" />
              <mxPoint x="370" y="887" />
            </Array>
          </mxGeometry>
        </mxCell>
        <mxCell id="IYwACVZ7fOERTfE9KCUY-100" value="石化事故致因层次体系" style="rounded=0;whiteSpace=wrap;html=1;" parent="1" vertex="1">
          <mxGeometry x="145" y="488" width="130" height="20" as="geometry" />
        </mxCell>
        <mxCell id="IYwACVZ7fOERTfE9KCUY-101" value="" style="endArrow=classic;html=1;rounded=0;exitX=0.5;exitY=1;exitDx=0;exitDy=0;entryX=0.5;entryY=0;entryDx=0;entryDy=0;" parent="1" source="IYwACVZ7fOERTfE9KCUY-100" target="IYwACVZ7fOERTfE9KCUY-35" edge="1">
          <mxGeometry width="50" height="50" relative="1" as="geometry">
            <mxPoint x="310" y="675" as="sourcePoint" />
            <mxPoint x="270" y="526" as="targetPoint" />
            <Array as="points">
              <mxPoint x="210" y="513" />
              <mxPoint x="370" y="513" />
            </Array>
          </mxGeometry>
        </mxCell>
        <mxCell id="IYwACVZ7fOERTfE9KCUY-102" value="强关联规则" style="rounded=0;whiteSpace=wrap;html=1;" parent="1" vertex="1">
          <mxGeometry x="290" y="488" width="160" height="20" as="geometry" />
        </mxCell>
        <mxCell id="IYwACVZ7fOERTfE9KCUY-103" value="" style="endArrow=classic;html=1;rounded=0;exitX=0.5;exitY=1;exitDx=0;exitDy=0;entryX=0.5;entryY=0;entryDx=0;entryDy=0;" parent="1" source="IYwACVZ7fOERTfE9KCUY-102" target="IYwACVZ7fOERTfE9KCUY-35" edge="1">
          <mxGeometry width="50" height="50" relative="1" as="geometry">
            <mxPoint x="510" y="675" as="sourcePoint" />
            <mxPoint x="270" y="526" as="targetPoint" />
            <Array as="points">
              <mxPoint x="370" y="515" />
            </Array>
          </mxGeometry>
        </mxCell>
        <mxCell id="IYwACVZ7fOERTfE9KCUY-104" value="关联规则分析" style="rounded=0;whiteSpace=wrap;html=1;" parent="1" vertex="1">
          <mxGeometry x="290" y="452" width="160" height="20" as="geometry" />
        </mxCell>
        <mxCell id="IYwACVZ7fOERTfE9KCUY-106" value="" style="endArrow=classic;html=1;rounded=0;entryX=0.5;entryY=0;entryDx=0;entryDy=0;" parent="1" target="IYwACVZ7fOERTfE9KCUY-104" edge="1">
          <mxGeometry width="50" height="50" relative="1" as="geometry">
            <mxPoint x="370" y="430" as="sourcePoint" />
            <mxPoint x="370" y="440" as="targetPoint" />
            <Array as="points" />
          </mxGeometry>
        </mxCell>
        <mxCell id="IYwACVZ7fOERTfE9KCUY-107" value="" style="endArrow=classic;html=1;rounded=0;entryX=0.5;entryY=0;entryDx=0;entryDy=0;" parent="1" edge="1">
          <mxGeometry width="50" height="50" relative="1" as="geometry">
            <mxPoint x="370" y="472" as="sourcePoint" />
            <mxPoint x="369.88" y="488" as="targetPoint" />
            <Array as="points" />
          </mxGeometry>
        </mxCell>
        <mxCell id="47UYqMWt09Ig30NeYRGR-1" value="BN 网络结构学习" style="rounded=0;whiteSpace=wrap;html=1;" vertex="1" parent="1">
          <mxGeometry x="290" y="621.5" width="160" height="20" as="geometry" />
        </mxCell>
        <mxCell id="47UYqMWt09Ig30NeYRGR-2" value="&lt;font face=&quot;黑体&quot;&gt;SPSS Modeler软件&lt;/font&gt;" style="rounded=0;whiteSpace=wrap;html=1;" vertex="1" parent="1">
          <mxGeometry x="460" y="410" width="160" height="20" as="geometry" />
        </mxCell>
        <mxCell id="47UYqMWt09Ig30NeYRGR-3" value="&lt;font face=&quot;黑体&quot;&gt;GeNIe软件&lt;/font&gt;" style="rounded=0;whiteSpace=wrap;html=1;" vertex="1" parent="1">
          <mxGeometry x="379" y="580" width="70" height="25" as="geometry" />
        </mxCell>
        <mxCell id="47UYqMWt09Ig30NeYRGR-4" value="" style="endArrow=classic;html=1;rounded=0;exitX=0.5;exitY=1;exitDx=0;exitDy=0;entryX=0.5;entryY=0;entryDx=0;entryDy=0;" edge="1" parent="1" source="47UYqMWt09Ig30NeYRGR-2" target="IYwACVZ7fOERTfE9KCUY-104">
          <mxGeometry width="50" height="50" relative="1" as="geometry">
            <mxPoint x="530" y="500" as="sourcePoint" />
            <mxPoint x="580" y="450" as="targetPoint" />
            <Array as="points">
              <mxPoint x="540" y="440" />
              <mxPoint x="370" y="440" />
            </Array>
          </mxGeometry>
        </mxCell>
        <mxCell id="47UYqMWt09Ig30NeYRGR-6" value="" style="endArrow=classic;html=1;rounded=0;exitX=0.5;exitY=1;exitDx=0;exitDy=0;" edge="1" parent="1" source="47UYqMWt09Ig30NeYRGR-3">
          <mxGeometry width="50" height="50" relative="1" as="geometry">
            <mxPoint x="470" y="604.5" as="sourcePoint" />
            <mxPoint x="370" y="622" as="targetPoint" />
            <Array as="points">
              <mxPoint x="414" y="610" />
              <mxPoint x="370" y="610" />
            </Array>
          </mxGeometry>
        </mxCell>
        <mxCell id="47UYqMWt09Ig30NeYRGR-8" value="" style="endArrow=classic;html=1;rounded=0;exitX=0.5;exitY=1;exitDx=0;exitDy=0;entryX=0.5;entryY=0;entryDx=0;entryDy=0;" edge="1" parent="1" source="47UYqMWt09Ig30NeYRGR-1" target="IYwACVZ7fOERTfE9KCUY-68">
          <mxGeometry width="50" height="50" relative="1" as="geometry">
            <mxPoint x="370" y="690" as="sourcePoint" />
            <mxPoint x="420" y="640" as="targetPoint" />
          </mxGeometry>
        </mxCell>
      </root>
    </mxGraphModel>
  </diagram>
</mxfile>
